HIERARCHY
ROOT Hips
{
	OFFSET -0.001795 -0.223333 0.028219
	CHANNELS 6 Xposition Yposition Zposition Zrotation Yrotation Xrotation 
	JOINT LeftUpLeg
	{
		OFFSET 0.069520 -0.091406 -0.006815
		CHANNELS 3 Zrotation Yrotation Xrotation
		JOINT LeftLeg
		{
			OFFSET 0.034277 -0.375199 -0.004496
			CHANNELS 3 Zrotation Yrotation Xrotation
			JOINT LeftFoot
			{
				OFFSET -0.013596 -0.397961 -0.043693
				CHANNELS 3 Zrotation Yrotation Xrotation
				JOINT LeftToe
				{
					OFFSET 0.026358 -0.055791 0.119288
					CHANNELS 3 Zrotation Yrotation Xrotation
					End Site
					{
						OFFSET 0.000000 0.000000 0.000000
					}
				}
			}
		}
	}
	JOINT RightUpLeg
	{
		OFFSET -0.067670 -0.090522 -0.004320
		CHANNELS 3 Zrotation Yrotation Xrotation
		JOINT RightLeg
		{
			OFFSET -0.038290 -0.382569 -0.008850
			CHANNELS 3 Zrotation Yrotation Xrotation
			JOINT RightFoot
			{
				OFFSET 0.015774 -0.398415 -0.042312
				CHANNELS 3 Zrotation Yrotation Xrotation
				JOINT RightToe
				{
					OFFSET -0.025372 -0.048144 0.123348
					CHANNELS 3 Zrotation Yrotation Xrotation
					End Site
					{
						OFFSET 0.000000 0.000000 0.000000
					}
				}
			}
		}
	}
	JOINT Spine
	{
		OFFSET -0.002533 0.108963 -0.026696
		CHANNELS 3 Zrotation Yrotation Xrotation
		JOINT Spine1
		{
			OFFSET 0.005487 0.135180 0.001092
			CHANNELS 3 Zrotation Yrotation Xrotation
			JOINT Spine2
			{
				OFFSET 0.001457 0.052922 0.025425
				CHANNELS 3 Zrotation Yrotation Xrotation
				JOINT Neck
				{
					OFFSET -0.002778 0.213870 -0.042857
					CHANNELS 3 Zrotation Yrotation Xrotation
					JOINT Head
					{
						OFFSET 0.005152 0.064970 0.051349
						CHANNELS 3 Zrotation Yrotation Xrotation
						End Site
						{
							OFFSET 0.000000 0.000000 0.000000
						}
					}
				}
				JOINT LeftShoulder
				{
					OFFSET 0.078845 0.121749 -0.034090
					CHANNELS 3 Zrotation Yrotation Xrotation
					JOINT LeftArm
					{
						OFFSET 0.090977 0.030469 -0.008868
						CHANNELS 3 Zrotation Yrotation Xrotation
						JOINT LeftForeArm
						{
							OFFSET 0.259612 -0.012772 -0.027456
							CHANNELS 3 Zrotation Yrotation Xrotation
							JOINT LeftHand
							{
								OFFSET 0.249234 0.008986 -0.001171
								CHANNELS 3 Zrotation Yrotation Xrotation
								End Site
								{
									OFFSET 0.000000 0.000000 0.000000
								}
							}
						}
					}
				}
				JOINT RightShoulder
				{
					OFFSET -0.081759 0.118833 -0.038615
					CHANNELS 3 Zrotation Yrotation Xrotation
					JOINT RightArm
					{
						OFFSET -0.096012 0.032551 -0.009143
						CHANNELS 3 Zrotation Yrotation Xrotation
						JOINT RightForeArm
						{
							OFFSET -0.253742 -0.013329 -0.021401
							CHANNELS 3 Zrotation Yrotation Xrotation
							JOINT RightHand
							{
								OFFSET -0.255298 0.007772 -0.005559
								CHANNELS 3 Zrotation Yrotation Xrotation
								End Site
								{
									OFFSET 0.000000 0.000000 0.000000
								}
							}
						}
					}
				}
			}
		}
	}
}
MOTION
Frames: 6
Frame Time: 0.050000
0.000000 0.937783 0.000000 -2.173357 -5.493956 4.307348 3.963856 -1.046036 -22.273336 -3.458450 0.501832 12.427028 9.824005 19.639593 14.410238 0.000000 0.000000 0.000000 -3.482623 1.018212 -11.813001 6.585283 -0.196291 49.103538 -3.322418 -11.912194 13.074411 0.000000 0.000000 0.000000 -5.331489 0.362405 17.359362 3.785179 -0.529982 -21.933922 0.559392 5.234670 25.864601 1.341302 0.403401 -15.667900 0.000000 0.000000 0.000000 -24.208308 -3.404084 0.046882 -42.526185 -4.338299 -5.479959 -6.411832 -37.985587 4.027707 0.000000 0.000000 0.000000 18.675020 7.138319 3.418387 51.291118 7.478212 -4.371019 -0.994578 40.315842 1.948564 0.000000 0.000000 0.000000 
0.003808 0.945298 0.022171 -2.407659 -5.410284 2.670726 4.186100 -0.837052 -17.435570 -4.268877 0.637814 9.717247 9.568705 19.291329 14.050800 0.000000 0.000000 0.000000 -3.273260 1.172233 -13.658309 8.477522 -1.306782 50.277332 -4.742760 -14.028919 10.594545 0.000000 0.000000 0.000000 -6.365511 0.562026 18.748384 4.892082 -0.774391 -22.499101 0.382521 3.474971 26.208256 -0.328633 1.304212 -14.903951 0.000000 0.000000 0.000000 -23.362896 -1.256654 -0.623139 -42.814872 -4.941321 -5.530318 -6.421286 -39.352905 4.412513 0.000000 0.000000 0.000000 16.860599 8.029426 3.414271 52.360673 7.656928 -4.295181 -1.141473 38.844445 1.641747 0.000000 0.000000 0.000000 
0.005964 0.952158 0.041677 -3.115178 -5.615165 1.772660 4.822028 -0.621068 -14.220068 -4.068208 0.582228 8.527121 8.599964 17.832930 13.700825 0.000000 0.000000 0.000000 -2.661404 1.366644 -15.255298 8.647444 -1.377983 45.928211 -5.892588 -15.105226 2.922942 0.000000 0.000000 0.000000 -5.316807 0.363567 19.353766 5.082886 -0.856763 -22.273535 -0.339506 3.111091 25.838453 -1.466197 2.084540 -15.126559 0.000000 0.000000 0.000000 -23.189768 -0.787837 -0.774486 -43.045381 -6.375651 -5.085954 -5.507550 -38.858617 4.074184 0.000000 0.000000 0.000000 17.286298 6.146196 2.316593 52.428220 7.520924 -4.338848 -1.051940 39.430864 1.697936 0.000000 0.000000 0.000000 
0.006392 0.955905 0.058778 -3.884998 -5.109222 2.770335 4.714208 -0.642643 -13.945824 -2.763672 0.310781 7.846791 8.659936 17.973793 14.121653 0.000000 0.000000 0.000000 -1.738115 1.666514 -17.352422 8.179382 -1.277189 36.969301 -7.102486 -17.419239 -0.180331 0.000000 0.000000 0.000000 -4.286259 0.150931 19.261006 5.823269 -0.945585 -23.190827 -0.352140 1.285431 25.506052 -2.777828 2.758156 -13.285595 0.000000 0.000000 0.000000 -23.240162 -0.017411 -0.773069 -43.361515 -7.520701 -4.836147 -4.562753 -38.741661 3.906663 0.000000 0.000000 0.000000 15.410210 6.463663 2.139653 53.232514 7.041684 -4.492312 -1.333020 39.568597 1.434560 0.000000 0.000000 0.000000 
0.005335 0.958201 0.074548 -3.735665 -4.626979 3.171057 3.653549 -0.718796 -12.626205 -0.912174 -0.021842 6.339275 7.969684 16.988637 14.304156 0.000000 0.000000 0.000000 -0.629514 1.718634 -16.769445 4.386829 -0.046944 25.152575 -8.716461 -21.251421 5.091392 0.000000 0.000000 0.000000 -3.288303 -0.054782 17.599814 4.806672 -0.720565 -22.785935 -0.414714 0.564548 25.576108 -2.956950 2.825574 -14.994297 0.000000 0.000000 0.000000 -21.345919 -0.242168 -0.411988 -44.366733 -8.627391 -4.533901 -5.249076 -39.845612 4.360526 0.000000 0.000000 0.000000 15.739253 6.105410 1.834683 54.236141 5.782993 -5.066782 -1.135553 40.812254 1.524765 0.000000 0.000000 0.000000 
0.003516 0.959730 0.088800 -3.236780 -4.402721 3.062529 3.305037 -0.674188 -10.992315 -0.677143 -0.037176 4.987902 7.152486 15.805762 14.715308 0.000000 0.000000 0.000000 -0.629049 1.509978 -14.907738 1.863089 0.322053 15.462902 -12.389743 -27.050861 16.423811 0.000000 0.000000 0.000000 -4.073876 0.069716 16.031562 5.816968 -1.016090 -22.125205 -0.625961 0.191735 25.680236 -4.257503 3.706372 -17.202096 0.000000 0.000000 0.000000 -20.679069 1.254481 -1.195324 -44.840743 -9.501683 -4.244451 -7.095733 -39.629048 5.054028 0.000000 0.000000 0.000000 13.652046 5.494626 1.547237 56.434854 4.617383 -5.783177 -0.244965 42.039097 1.918636 0.000000 0.000000 0.000000 
